simulation
nRows=30
nColumns=15
endheader
time  TH_x TH_y TH_z SC_y  SC_z  SC_x  AC_y  AC_z  AC_x  GH_y  GH_z  GH_yy  EL_x  PS_y
0.750178  0.000000  0.000000  0.000000  -52.039433  6.491480  -9.745580  43.703215  7.732837  -1.429851  33.024103  37.679487  -16.698133  18.612118  120.336195
0.750534  0.000000  0.000000  0.000000  -15.962298  6.692414  -9.745580  50.364448  37.892670  5.848085  21.999842  47.340797  -18.939186  20.323561  116.468798
0.750890  0.000000  0.000000  0.000000  -32.931955  0.221694  -2.245580  54.988573  22.308932  0.547841  25.245389  41.417052  -22.827710  18.817190  125.465339
0.751246  0.000000  0.000000  0.000000  -46.750182  -10.035607  -2.245580  59.536260  11.074795  -6.484499  34.889199  31.836018  -19.051175  11.014151  133.892313
0.751601  0.000000  0.000000  0.000000  -26.039442  8.188318  -2.245580  51.266269  39.918858  6.862202  25.499656  44.393520  -25.103066  15.217233  127.758272
0.751957  0.000000  0.000000  0.000000  -22.165969  14.054799  -2.245580  56.171991  16.564768  10.384510  21.269838  39.479589  -31.795107  21.834803  117.844139
0.752313  0.000000  0.000000  0.000000  -28.397058  6.347210  -2.245580  52.193781  38.321372  7.130088  33.087011  37.730485  -16.686918  9.120871  132.113497
0.752669  0.000000  0.000000  0.000000  -42.869297  3.050138  -2.245580  60.211145  19.820200  8.939721  28.531357  42.754743  -19.802270  11.178755  119.621279
0.753025  0.000000  0.000000  0.000000  -27.075284  -3.064660  -2.245580  57.423283  28.847692  -8.814430  23.343896  46.783891  -27.714650  14.080945  132.261430
0.753381  0.000000  0.000000  0.000000  -45.717834  4.069494  -2.245580  50.122774  3.961771  3.496958  17.579860  39.105631  -14.259001  25.192808  122.187412
0.753737  0.000000  0.000000  0.000000  -21.777692  2.105855  -2.245580  46.186321  31.766590  1.394470  27.966876  36.218360  -32.762932  25.723831  126.185940
0.754093  0.000000  0.000000  0.000000  -28.990377  -11.813827  -2.245580  60.544580  41.522120  -9.266806  19.322384  40.173668  -32.318081  16.273411  116.912205
0.754448  0.000000  0.000000  0.000000  -24.758771  9.263883  -2.245580  51.826392  14.194880  0.338116  28.074012  35.444778  -30.755303  16.513372  117.923512
0.754804  0.000000  0.000000  0.000000  -19.102276  5.865855  -2.245580  45.575038  12.941364  -4.967266  20.956982  45.833636  -27.256640  24.674497  128.545401
0.755160  0.000000  0.000000  0.000000  -28.583885  -9.217854  -2.245580  60.568094  -2.116648  7.715689  24.634280  40.309566  -18.083989  27.630197  130.656635
0.755516  0.000000  0.000000  0.000000  -22.448994  -17.398536  -2.245580  59.522962  6.058226  -6.697365  15.367139  36.753523  -32.639859  25.865558  117.072372
0.755872  0.000000  0.000000  0.000000  -32.931955  0.221694  5.254420  56.462268  16.108004  -3.922800  25.245389  41.417052  -22.827710  18.817190  125.465339
0.756228  0.000000  0.000000  0.000000  -14.398966  2.522823  5.254420  55.516762  18.528426  -3.375562  25.575045  36.895213  -28.877640  8.887216  123.378831
0.756584  0.000000  0.000000  0.000000  -13.647714  -0.990880  5.254420  56.941313  1.458681  -5.998785  15.557594  33.798775  -15.238593  22.911987  131.370635
0.756940  0.000000  0.000000  0.000000  -30.593123  -3.389187  5.254420  60.850378  39.877026  -2.786708  15.627955  49.068671  -32.711841  12.127593  117.897500
0.757295  0.000000  0.000000  0.000000  -21.947465  -4.555285  5.254420  49.196306  40.661346  -2.365987  21.513983  45.686228  -31.517572  12.624520  122.336047
0.757651  0.000000  0.000000  0.000000  -33.940548  3.573709  5.254420  53.681116  17.541472  -1.272853  34.464813  32.629555  -19.548872  12.315622  130.155795
0.758007  0.000000  0.000000  0.000000  -37.457252  0.563341  5.254420  61.098109  24.886401  -1.454293  34.264993  34.480772  -32.097210  26.794158  131.391551
0.758363  0.000000  0.000000  0.000000  -37.004507  -0.874033  5.254420  56.700511  10.397690  -3.383484  29.227380  45.962208  -22.526653  26.957309  123.003147
0.758719  0.000000  0.000000  0.000000  -46.817857  -1.776636  5.254420  57.816578  -4.804337  2.695148  22.435794  31.999631  -32.787260  11.784822  124.625651
0.759075  0.000000  0.000000  0.000000  -13.768821  -6.434136  5.254420  59.264039  5.399217  -11.250848  25.048730  34.914430  -23.585651  25.225369  131.486974
0.759431  0.000000  0.000000  0.000000  -50.408870  -5.115957  5.254420  65.432838  23.850814  -6.194053  32.072346  36.723032  -19.341285  12.864423  116.422629
0.759786  0.000000  0.000000  0.000000  -24.204711  4.717339  5.254420  58.948162  39.771704  5.006741  30.991224  47.890394  -14.347895  9.190780  125.717712
0.760142  0.000000  0.000000  0.000000  -17.898998  0.457944  5.254420  59.537920  -0.833671  -0.895863  24.648832  43.269821  -24.651411  27.462842  129.437808
0.760498  0.000000  0.000000  0.000000  -32.931955  0.221694  12.754420  57.405651  9.819810  -8.119822  25.245389  41.417052  -22.827710  18.817190  125.465339
